<svg data-v-423bf9ae="" xmlns="http://www.w3.org/2000/svg" viewBox="0 0 120.9740203493343 60" class="font"><g data-v-423bf9ae="" id="fbf0f7f0-8b11-411e-a044-8136adfb0486" fill="black" transform="matrix(4.87012961377663,0,0,4.87012961377663,4.090908031134539,-9.058441270501582)"><path d="M3.36 1.86L0.42 1.86L0.42 2.46L1.40 3.16L1.40 11.66C1.40 12.24 0.97 12.60 0.28 12.60C-0.15 12.60-0.52 12.54-0.84 12.40L-0.84 14C-0.52 14.11-0.10 14.18 0.28 14.18C2.16 14.18 3.36 13.20 3.36 11.66ZM11.48 7C11.48 4.96 10.25 3.54 8.12 3.54C6.01 3.54 4.76 4.96 4.76 7C4.76 9.03 6.01 10.44 8.12 10.44C10.25 10.44 11.48 9.03 11.48 7ZM9.52 7C9.52 8.22 9.02 8.86 8.12 8.86C7.24 8.86 6.72 8.22 6.72 7C6.72 5.77 7.24 5.12 8.12 5.12C9.02 5.12 9.52 5.77 9.52 7ZM17.74 8.20C17.74 6.78 16.77 6.10 15.08 6.10C14.53 6.10 14.31 5.91 14.31 5.64C14.31 5.38 14.55 5.12 15.36 5.12C15.68 5.12 16.02 5.15 16.38 5.21L17.04 6.13L17.65 6.13L17.65 3.89C16.90 3.68 16.20 3.54 15.36 3.54C13.43 3.54 12.42 4.66 12.42 5.78C12.42 7.21 13.40 7.88 15.08 7.88C15.64 7.88 15.85 8.09 15.85 8.34C15.85 8.61 15.61 8.86 14.80 8.86C14.14 8.86 13.33 8.74 12.52 8.51L12.52 10.09C13.27 10.30 13.97 10.44 14.80 10.44C16.74 10.44 17.74 9.32 17.74 8.20ZM24.00 8.20C24.00 6.78 23.03 6.10 21.34 6.10C20.79 6.10 20.57 5.91 20.57 5.64C20.57 5.38 20.80 5.12 21.62 5.12C21.94 5.12 22.27 5.15 22.64 5.21L23.30 6.13L23.91 6.13L23.91 3.89C23.16 3.68 22.46 3.54 21.62 3.54C19.68 3.54 18.68 4.66 18.68 5.78C18.68 7.21 19.66 7.88 21.34 7.88C21.90 7.88 22.11 8.09 22.11 8.34C22.11 8.61 21.87 8.86 21.06 8.86C20.40 8.86 19.59 8.74 18.77 8.51L18.77 10.09C19.53 10.30 20.23 10.44 21.06 10.44C23.00 10.44 24.00 9.32 24.00 8.20Z"></path></g></svg>